<?xml version="1.0" standalone="no"?>
<!DOCTYPE svg PUBLIC "-//W3C//DTD SVG 1.1//EN" "http://www.w3.org/Graphics/SVG/1.1/DTD/svg11.dtd" >
<svg xmlns="http://www.w3.org/2000/svg">
<metadata>Generated by IcoMoon</metadata>
<defs>
<font id="bottree_icons_2" horiz-adv-x="1024">
<font-face units-per-em="1024" ascent="960" descent="-64" />
<missing-glyph horiz-adv-x="1024" />
<glyph unicode="&#x20;" horiz-adv-x="512" d="" />
<glyph unicode="&#xe900;" glyph-name="icon_menu_chat" d="M512 234.667l-213.333-160v160h-42.92c-46.988 0-85.080 37.864-85.080 85.317v256.033c0 47.119 38.166 85.317 85.080 85.317h512.507c46.988 0 85.080-37.864 85.080-85.317v-256.033c0-47.119-38.166-85.317-85.080-85.317h-256.253zM298.667 448c0-47.457 38.198-85.333 85.317-85.333h256.033c47.453 0 85.317 38.205 85.317 85.333 0 47.457-38.198 85.333-85.317 85.333h-256.033c-47.453 0-85.317-38.205-85.317-85.333z" />
<glyph unicode="&#xe901;" glyph-name="icon_menu_report" d="M170.667 192h682.667v-42.667h-682.667v42.667zM298.667 405.333h42.667c23.564 0 42.667-19.103 42.667-42.667v-170.667c0-23.564-19.103-42.667-42.667-42.667h-42.667c-23.564 0-42.667 19.103-42.667 42.667v170.667c0 23.564 19.103 42.667 42.667 42.667zM490.667 576h42.667c23.564 0 42.667-19.103 42.667-42.667v-341.333c0-23.564-19.103-42.667-42.667-42.667h-42.667c-23.564 0-42.667 19.103-42.667 42.667v341.333c0 23.564 19.103 42.667 42.667 42.667zM682.667 746.667h42.667c23.564 0 42.667-19.103 42.667-42.667v-512c0-23.564-19.103-42.667-42.667-42.667h-42.667c-23.564 0-42.667 19.103-42.667 42.667v512c0 23.564 19.103 42.667 42.667 42.667z" />
<glyph unicode="&#xe902;" glyph-name="icon_menu_setting" d="M236.827 369.893l-72.878 4.575c-19.935 0-35.949 16.014-35.949 35.949v75.166c0 19.935 16.014 35.949 35.949 35.949l72.878 4.575c6.209 22.060 15.033 42.975 26.145 62.42l-49.021 53.597c-14.053 14.053-14.053 36.766 0 50.819l53.106 53.106c14.053 14.053 36.766 14.053 50.819 0l53.597-49.021c19.445 11.111 40.361 19.935 62.404 26.145l4.592 72.878c0 19.935 16.014 35.949 35.949 35.949h75.166c19.935 0 35.949-16.014 35.949-35.949l4.575-72.878c22.060-6.209 42.975-15.033 62.42-26.145l53.597 49.021c14.053 14.053 36.766 14.053 50.819 0l53.106-53.106c14.053-14.053 14.053-36.766 0-50.819l-49.021-53.597c11.111-19.445 19.935-40.361 26.145-62.42l72.878-4.575c19.935 0 35.949-16.014 35.949-35.949v-75.166c0-19.935-16.014-35.949-35.949-35.949l-72.878-4.575c-6.209-22.060-15.033-42.975-26.145-62.42l49.021-53.597c14.053-14.053 14.053-36.766 0-50.819l-53.106-53.106c-14.053-14.053-36.766-14.053-50.819 0l-53.597 49.021c-19.445-11.111-40.361-19.935-62.42-26.145l-4.575-72.878c0-19.935-16.014-35.949-35.949-35.949h-75.166c-19.935 0-35.949 16.014-35.949 35.949l-4.592 72.878c-22.043 6.209-42.959 15.033-62.404 26.145l-53.597-49.021c-14.053-14.053-36.766-14.053-50.819 0l-53.106 53.106c-14.053 14.053-14.053 36.766 0 50.819l49.021 53.597c-11.111 19.445-19.935 40.361-26.145 62.42zM356.766 448c0-85.737 69.497-155.234 155.234-155.234s155.234 69.497 155.234 155.234c0 85.737-69.497 155.234-155.234 155.234s-155.234-69.497-155.234-155.234z" />
<glyph unicode="&#xe903;" glyph-name="icon_menu_userdatabase" d="M512 448c-82.475 0-149.333 66.859-149.333 149.333s66.859 149.333 149.333 149.333c82.475 0 149.333-66.859 149.333-149.333s-66.859-149.333-149.333-149.333zM746.667 192c0-11.782-9.551-21.333-21.333-21.333h-426.667c-11.782 0-21.333 9.551-21.333 21.333 0 152.394 104.116 277.333 234.667 277.333s234.667-124.939 234.667-277.333z" />
<glyph unicode="&#xe904;" glyph-name="icon_add" d="M554.667 490.667h85.46c23.494 0 42.54-18.938 42.54-42.667 0-23.564-19.33-42.667-42.54-42.667h-85.46v-85.46c0-23.494-18.938-42.54-42.667-42.54-23.564 0-42.667 19.33-42.667 42.54v85.46h-85.46c-23.494 0-42.54 18.938-42.54 42.667 0 23.564 19.33 42.667 42.54 42.667h85.46v85.46c0 23.494 18.938 42.54 42.667 42.54 23.564 0 42.667-19.33 42.667-42.54v-85.46zM128 448c0 212.077 171.876 384 384 384 212.077 0 384-171.876 384-384 0-212.077-171.876-384-384-384-212.077 0-384 171.876-384 384zM213.333 448c0-164.613 133.718-298.667 298.667-298.667 164.613 0 298.667 133.718 298.667 298.667 0 164.613-133.718 298.667-298.667 298.667-164.613 0-298.667-133.718-298.667-298.667z" />
<glyph unicode="&#xe905;" glyph-name="icon_add02" d="M554.667 405.333h213.041c23.761 0 42.959 19.103 42.959 42.667 0 23.728-19.233 42.667-42.959 42.667h-213.041v213.041c0 23.761-19.103 42.959-42.667 42.959-23.728 0-42.667-19.233-42.667-42.959v-213.041h-213.041c-23.761 0-42.959-19.103-42.959-42.667 0-23.728 19.233-42.667 42.959-42.667h213.041v-213.041c0-23.761 19.103-42.959 42.667-42.959 23.728 0 42.667 19.233 42.667 42.959v213.041z" />
<glyph unicode="&#xe906;" glyph-name="icon_addReaction_quickreplay" d="M85.333 448c0 141.385 114.199 256 256.028 256h341.277c141.4 0 256.028-114.903 256.028-256 0-141.385-114.199-256-256.028-256h-341.277c-141.4 0-256.028 114.903-256.028 256zM170.667 448c0-94.065 76.338-170.667 170.505-170.667h341.657c94.181 0 170.505 76.41 170.505 170.667 0 94.065-76.338 170.667-170.505 170.667h-341.657c-94.181 0-170.505-76.41-170.505-170.667zM298.667 448c0 23.564 18.938 42.667 42.667 42.667 23.564 0 42.667-18.938 42.667-42.667 0-23.564-18.938-42.667-42.667-42.667-23.564 0-42.667 18.938-42.667 42.667zM469.333 448c0 23.564 18.938 42.667 42.667 42.667 23.564 0 42.667-18.938 42.667-42.667 0-23.564-18.938-42.667-42.667-42.667-23.564 0-42.667 18.938-42.667 42.667zM640 448c0 23.564 18.938 42.667 42.667 42.667 23.564 0 42.667-18.938 42.667-42.667 0-23.564-18.938-42.667-42.667-42.667-23.564 0-42.667 18.938-42.667 42.667z" />
<glyph unicode="&#xe907;" glyph-name="icon_addReaction_wait" d="M618.043 603.023c4.597 13.246 8.616 27.982 12.108 44.234 6.92 32.208 10.58 66.25 11.781 99.41h-259.877c1.181-33.213 4.806-67.309 11.673-99.569 3.463-16.272 7.446-31.018 12-44.269 11.225 9.862 25.968 15.838 42.211 15.838h128.122c16.067 0 30.75-5.881 41.982-15.644zM602.145 448.623c102.132-54.356 124.212-203.496 127.355-299.29h38.208c23.725 0 42.959-18.938 42.959-42.667 0-23.564-19.198-42.667-42.959-42.667h-40.073c0-0.001 0-0.002 0-0.002h-426.667c0 0 0 0 0 0.001h-44.676c-23.725 0-42.959 18.938-42.959 42.667 0 23.564 19.198 42.667 42.959 42.667h42.799c3.065 95.067 24.618 242.675 123.967 298.037-101.319 54.352-123.18 203.5-126.268 299.297h-40.498c-23.725 0-42.959 18.938-42.959 42.667 0 23.564 19.198 42.667 42.959 42.667h511.416c23.725 0 42.959-18.938 42.959-42.667 0-23.564-19.198-42.667-42.959-42.667h-40.509c-3.119-95.070-24.889-242.685-125.054-298.043zM644.233 149.332c-1.201 33.159-4.861 67.201-11.781 99.41-19.682 91.611-56.115 135.020-118.477 135.258-62.094 0.237-98.344-43.005-117.946-135.098-6.866-32.26-10.492-66.356-11.673-99.569h259.877z" />
<glyph unicode="&#xe908;" glyph-name="icon_addSection_carousel" d="M384 661.333h256v-426.667h-256v426.667zM725.333 661.333h170.756c47.079 0 85.244-37.864 85.244-85.317v-256.033c0-47.119-38.326-85.317-85.244-85.317h-170.756v426.667zM42.667 576.016c0 47.119 38.326 85.317 85.244 85.317h170.756v-426.667h-170.756c-47.079 0-85.244 37.864-85.244 85.317v256.033zM810.667 576v-256h85.333v256h-85.333zM128 576v-256h85.333v256h-85.333zM469.333 576v-256h85.333v256h-85.333z" />
<glyph unicode="&#xe909;" glyph-name="icon_addSection_file" d="M810.667 490.667v85.333h-384v85.333h-213.333v-170.667h597.333zM810.667 405.333h-597.333v-256h597.333v256zM512 661.333h341.615c23.409 0 42.385-19.198 42.385-42.959v-511.416c0-23.725-18.984-42.959-42.385-42.959h-683.23c-23.409 0-42.385 19.198-42.385 42.959v511.416c0 0.115 0 0.229 0.001 0.343-0.001 0.116-0.001 0.232-0.001 0.349v84.534c0 23.785 19.043 43.066 42.562 43.066h298.876c23.506 0 42.562-18.916 42.562-43.066v-42.267z" />
<glyph unicode="&#xe90a;" glyph-name="icon_addSection_list" d="M256 533.333v-426.667h512v682.667h-512v-170.667h512v-85.333h-512zM170.667 832.35c0 23.371 18.971 42.317 42.704 42.317h597.259c23.585 0 42.704-19.426 42.704-42.317v-768.699c0-23.371-18.971-42.317-42.704-42.317h-597.259c-23.585 0-42.704 19.426-42.704 42.317v768.699zM256 362.667h512v-85.333h-512v85.333z" />
<glyph unicode="&#xe90b;" glyph-name="icon_addSection_text" d="M128 789.615c0 23.409 18.984 42.385 42.385 42.385h683.23c23.409 0 42.385-18.984 42.385-42.385v-683.23c0-23.409-18.984-42.385-42.385-42.385h-683.23c-23.409 0-42.385 18.984-42.385 42.385v683.23zM213.333 746.667v-597.333h597.333v597.333h-597.333zM298.667 618.667c0 23.564 19.442 42.667 42.47 42.667h341.726c23.456 0 42.47-18.938 42.47-42.667 0-23.564-19.442-42.667-42.47-42.667h-341.726c-23.456 0-42.47 18.938-42.47 42.667zM298.667 448c0 23.564 18.932 42.667 42.658 42.667h128.016c23.56 0 42.658-18.938 42.658-42.667 0-23.564-18.932-42.667-42.658-42.667h-128.016c-23.56 0-42.658 18.938-42.658 42.667zM298.667 277.333c0 23.564 18.683 42.667 42.792 42.667h213.083c23.633 0 42.792-18.938 42.792-42.667 0-23.564-18.683-42.667-42.792-42.667h-213.083c-23.633 0-42.792 18.938-42.792 42.667z" />
<glyph unicode="&#xe90c;" glyph-name="icon_big_link" d="M369.771 512.65l-77.671-77.671c-57.133-57.133-57.037-149.66 0.091-206.788 57.012-57.012 149.71-57.169 206.788-0.091l77.671 77.671 51.72-51.72 77.58 77.58-51.72 51.72 77.671 77.671c57.133 57.133 57.037 149.66-0.091 206.788-57.012 57.012-149.71 57.169-206.788 0.091l-77.671-77.671-51.72 51.72-77.58-77.58 51.72-51.72zM227.541 163.541c-85.692 85.692-85.684 224.635-0.076 310.243l258.751 258.751c85.65 85.65 224.532 85.635 310.243-0.076 85.692-85.692 85.684-224.635 0.076-310.243l-258.751-258.751c-85.65-85.65-224.532-85.635-310.243 0.076zM395.63 331.63c-21.423 21.423-21.297 56.283-0.096 77.483l155.352 155.352c21.37 21.37 56.104 21.283 77.483-0.096 21.423-21.423 21.297-56.283 0.096-77.483l-155.352-155.352c-21.37-21.37-56.104-21.283-77.483 0.096z" />
<glyph unicode="&#xe90d;" glyph-name="icon_big_placeholder_file" d="M147.42 640.068c-0.741 2.929-1.134 6.004-1.134 9.183v54.641c0 20.258 16.357 36.68 36.463 36.68h219.646c20.138 0 36.463-16.211 36.463-36.68v-36.463h402.335c20.17 0 36.522-16.455 36.522-36.411v-439.177c0-20.109-16.302-36.411-36.522-36.411h-658.385c-20.17 0-36.522 16.455-36.522 36.411v439.177c0 3.124 0.394 6.157 1.134 9.051zM201.143 612.571v-402.286h621.714v402.286h-621.714zM201.143 685.714v-73.143h182.857v73.143h-182.857zM201.143 539.429h621.714v-54.857h-621.714v54.857z" />
<glyph unicode="&#xe90e;" glyph-name="icon_big_placeholder_image" d="M146.286 703.968c0 20.215 16.302 36.603 36.522 36.603h658.385c20.17 0 36.522-16.261 36.522-36.603v-511.936c0-20.215-16.302-36.603-36.522-36.603h-658.385c-20.17 0-36.522 16.261-36.522 36.603v511.936zM201.143 685.714v-475.429h621.714v475.429h-621.714zM374.857 484.571c-35.346 0-64 28.654-64 64s28.654 64 64 64c35.346 0 64-28.654 64-64s-28.654-64-64-64zM347.429 548.571c0-15.254 12.28-27.429 27.429-27.429 15.254 0 27.429 12.28 27.429 27.429 0 15.254-12.28 27.429-27.429 27.429-15.254 0-27.429-12.28-27.429-27.429zM440.762 322.966l-47.651 47.697-100.717-100.788c-9.994-10.001-26.203-10.007-36.204-0.013s-10.007 26.203-0.013 36.204l118.828 118.912c10 10.007 26.221 10.006 36.219-0.002l47.266-47.311 101.87 106.331c10.078 10.519 26.89 10.52 36.969 0.002l170.869-178.315c9.782-10.208 9.436-26.414-0.772-36.196s-26.414-9.436-36.196 0.772l-152.384 159.024-101.488-105.933c-9.933-10.368-26.449-10.541-36.596-0.383z" />
<glyph unicode="&#xe90f;" glyph-name="icon_big_placeholder_movie" d="M201.143 722.287c0 20.197 16.31 36.57 36.57 36.57h548.574c20.197 0 36.57-16.31 36.57-36.57v-548.574c0-20.197-16.31-36.57-36.57-36.57h-548.574c-20.197 0-36.57 16.31-36.57 36.57v548.574zM329.143 704v-512h365.714v512h-365.714zM237.714 685.733v-18.324c0-10.172 8.178-18.267 18.267-18.267h18.324c10.172 0 18.267 8.178 18.267 18.267v18.324c0 10.172-8.178 18.267-18.267 18.267h-18.324c-10.172 0-18.267-8.178-18.267-18.267zM237.714 594.305v-18.324c0-10.172 8.178-18.267 18.267-18.267h18.324c10.172 0 18.267 8.178 18.267 18.267v18.324c0 10.172-8.178 18.267-18.267 18.267h-18.324c-10.172 0-18.267-8.178-18.267-18.267zM237.714 502.876v-18.324c0-10.172 8.178-18.267 18.267-18.267h18.324c10.172 0 18.267 8.178 18.267 18.267v18.324c0 10.172-8.178 18.267-18.267 18.267h-18.324c-10.172 0-18.267-8.178-18.267-18.267zM237.714 411.448v-18.324c0-10.172 8.178-18.267 18.267-18.267h18.324c10.172 0 18.267 8.178 18.267 18.267v18.324c0 10.172-8.178 18.267-18.267 18.267h-18.324c-10.172 0-18.267-8.178-18.267-18.267zM237.714 320.019v-18.324c0-10.172 8.178-18.267 18.267-18.267h18.324c10.172 0 18.267 8.178 18.267 18.267v18.324c0 10.172-8.178 18.267-18.267 18.267h-18.324c-10.172 0-18.267-8.178-18.267-18.267zM237.714 228.591v-18.324c0-10.172 8.178-18.267 18.267-18.267h18.324c10.172 0 18.267 8.178 18.267 18.267v18.324c0 10.172-8.178 18.267-18.267 18.267h-18.324c-10.172 0-18.267-8.178-18.267-18.267zM731.429 685.733v-18.324c0-10.172 8.178-18.267 18.267-18.267h18.324c10.172 0 18.267 8.178 18.267 18.267v18.324c0 10.172-8.178 18.267-18.267 18.267h-18.324c-10.172 0-18.267-8.178-18.267-18.267zM731.429 594.305v-18.324c0-10.172 8.178-18.267 18.267-18.267h18.324c10.172 0 18.267 8.178 18.267 18.267v18.324c0 10.172-8.178 18.267-18.267 18.267h-18.324c-10.172 0-18.267-8.178-18.267-18.267zM731.429 502.876v-18.324c0-10.172 8.178-18.267 18.267-18.267h18.324c10.172 0 18.267 8.178 18.267 18.267v18.324c0 10.172-8.178 18.267-18.267 18.267h-18.324c-10.172 0-18.267-8.178-18.267-18.267zM731.429 411.448v-18.324c0-10.172 8.178-18.267 18.267-18.267h18.324c10.172 0 18.267 8.178 18.267 18.267v18.324c0 10.172-8.178 18.267-18.267 18.267h-18.324c-10.172 0-18.267-8.178-18.267-18.267zM731.429 320.019v-18.324c0-10.172 8.178-18.267 18.267-18.267h18.324c10.172 0 18.267 8.178 18.267 18.267v18.324c0 10.172-8.178 18.267-18.267 18.267h-18.324c-10.172 0-18.267-8.178-18.267-18.267zM731.429 228.591v-18.324c0-10.172 8.178-18.267 18.267-18.267h18.324c10.172 0 18.267 8.178 18.267 18.267v18.324c0 10.172-8.178 18.267-18.267 18.267h-18.324c-10.172 0-18.267-8.178-18.267-18.267zM329.143 466.286h365.714v-36.571h-365.714v36.571z" />
<glyph unicode="&#xe910;" glyph-name="icon_big_placeholder_text" d="M585.143 173.714v109.86c0 20.117 16.46 36.425 36.425 36.425h109.86v402.286h-438.857v-548.571h292.571zM786.286 191.999v-73.142h-512.153c-20.113 0-36.418 16.272-36.418 36.566v585.154c0 20.195 16.418 36.566 36.418 36.566h475.735c20.113 0 36.418-16.272 36.418-36.566v-438.862l-182.857-182.857h182.857v73.142zM365.714 384c0 15.148 12.221 27.429 27.515 27.429h91.255c15.196 0 27.515-12.175 27.515-27.429 0-15.148-12.221-27.429-27.515-27.429h-91.255c-15.196 0-27.515 12.175-27.515 27.429zM365.714 493.714c0 15.148 12.199 27.429 27.524 27.429h237.523c15.201 0 27.524-12.175 27.524-27.429 0-15.148-12.199-27.429-27.524-27.429h-237.523c-15.201 0-27.524 12.175-27.524 27.429zM365.714 603.429c0 15.148 12.199 27.429 27.524 27.429h237.523c15.201 0 27.524-12.175 27.524-27.429 0-15.148-12.199-27.429-27.524-27.429h-237.523c-15.201 0-27.524 12.175-27.524 27.429z" />
<glyph unicode="&#xe911;" glyph-name="icon_big_placeholder_voice" d="M439.68 701.146c39.753 30.629 72.32 15.543 72.32-33.28v-450.249c0-48.841-32.567-63.927-72.32-33.298l-59.502 45.769c-36.352 27.995-93.769 72.21-133.723 102.93h-81.774c-20.261 0-36.681 16.494-36.681 36.736v145.957c0 20.297 16.219 36.736 36.681 36.736h81.774c39.954 30.72 97.371 74.935 133.723 102.93l59.502 45.769zM457.143 240.090v405.266l-192.037-147.767h-82.249v-109.714h82.249l192.037-147.785zM606.294 311.857c-7.022 0-14.043 2.67-19.401 8.027-10.697 10.697-10.697 28.087 0 38.802 22.455 22.455 34.816 52.297 34.816 84.041 0 31.762-12.361 61.586-34.816 84.059-10.697 10.715-10.697 28.087 0 38.784 10.715 10.715 28.087 10.715 38.802 0 32.805-32.823 50.871-76.453 50.871-122.843s-18.066-90.021-50.871-122.843c-5.358-5.358-12.379-8.027-19.401-8.027zM683.875 234.286c-7.022 0-14.043 2.67-19.401 8.027-10.697 10.715-10.697 28.087 0 38.802 43.173 43.154 66.962 100.571 66.962 161.609 0 61.056-23.79 118.473-66.962 161.627-10.697 10.715-10.697 28.069 0 38.784s28.087 10.715 38.802 0c53.522-53.504 83.017-124.69 83.017-200.411 0-75.703-29.495-146.889-83.017-200.411-5.358-5.358-12.379-8.027-19.401-8.027zM758.853 163.162c-7.022 0-14.043 2.67-19.401 8.027-10.697 10.715-10.697 28.087 0 38.802 62.171 62.171 96.402 144.823 96.402 232.741 0 87.936-34.231 170.569-96.402 232.741-10.697 10.715-10.697 28.069 0 38.784s28.105 10.715 38.802 0c72.521-72.521 112.457-168.96 112.457-271.525s-39.936-199.003-112.457-271.543c-5.358-5.358-12.379-8.027-19.401-8.027z" />
<glyph unicode="&#xe912;" glyph-name="icon_big_report_nodata" d="M18.286 54.857c0 15.148 12.129 27.429 27.44 27.429h932.548c15.155 0 27.44-12.175 27.44-27.429 0-15.148-12.129-27.429-27.44-27.429h-932.548c-15.155 0-27.44 12.175-27.44 27.429zM109.714 128c0 15.148 12.175 27.429 27.429 27.429 15.148 0 27.429-12.175 27.429-27.429 0-15.148-12.175-27.429-27.429-27.429-15.148 0-27.429 12.175-27.429 27.429zM256 128c0 15.148 12.175 27.429 27.429 27.429 15.148 0 27.429-12.175 27.429-27.429 0-15.148-12.175-27.429-27.429-27.429-15.148 0-27.429 12.175-27.429 27.429zM182.857 420.571c0 15.148 12.175 27.429 27.429 27.429 15.148 0 27.429-12.175 27.429-27.429 0-15.148-12.175-27.429-27.429-27.429-15.148 0-27.429 12.175-27.429 27.429zM109.714 420.571c0 15.148 12.175 27.429 27.429 27.429 15.148 0 27.429-12.175 27.429-27.429 0-15.148-12.175-27.429-27.429-27.429-15.148 0-27.429 12.175-27.429 27.429zM109.714 347.429c0 15.148 12.175 27.429 27.429 27.429 15.148 0 27.429-12.175 27.429-27.429 0-15.148-12.175-27.429-27.429-27.429-15.148 0-27.429 12.175-27.429 27.429zM109.714 274.286c0 15.148 12.175 27.429 27.429 27.429 15.148 0 27.429-12.175 27.429-27.429 0-15.148-12.175-27.429-27.429-27.429-15.148 0-27.429 12.175-27.429 27.429zM109.714 201.143c0 15.148 12.175 27.429 27.429 27.429 15.148 0 27.429-12.175 27.429-27.429 0-15.148-12.175-27.429-27.429-27.429-15.148 0-27.429 12.175-27.429 27.429zM256 420.571c0 15.148 12.175 27.429 27.429 27.429 15.148 0 27.429-12.175 27.429-27.429 0-15.148-12.175-27.429-27.429-27.429-15.148 0-27.429 12.175-27.429 27.429zM256 347.429c0 15.148 12.175 27.429 27.429 27.429 15.148 0 27.429-12.175 27.429-27.429 0-15.148-12.175-27.429-27.429-27.429-15.148 0-27.429 12.175-27.429 27.429zM256 274.286c0 15.148 12.175 27.429 27.429 27.429 15.148 0 27.429-12.175 27.429-27.429 0-15.148-12.175-27.429-27.429-27.429-15.148 0-27.429 12.175-27.429 27.429zM256 201.143c0 15.148 12.175 27.429 27.429 27.429 15.148 0 27.429-12.175 27.429-27.429 0-15.148-12.175-27.429-27.429-27.429-15.148 0-27.429 12.175-27.429 27.429zM402.286 128c0 15.148 12.175 27.429 27.429 27.429 15.148 0 27.429-12.175 27.429-27.429 0-15.148-12.175-27.429-27.429-27.429-15.148 0-27.429 12.175-27.429 27.429zM548.571 128c0 15.148 12.175 27.429 27.429 27.429 15.148 0 27.429-12.175 27.429-27.429 0-15.148-12.175-27.429-27.429-27.429-15.148 0-27.429 12.175-27.429 27.429zM475.429 566.857c0 15.148 12.175 27.429 27.429 27.429 15.148 0 27.429-12.175 27.429-27.429 0-15.148-12.175-27.429-27.429-27.429-15.148 0-27.429 12.175-27.429 27.429zM402.286 566.857c0 15.148 12.175 27.429 27.429 27.429 15.148 0 27.429-12.175 27.429-27.429 0-15.148-12.175-27.429-27.429-27.429-15.148 0-27.429 12.175-27.429 27.429zM402.286 493.714c0 15.148 12.175 27.429 27.429 27.429 15.148 0 27.429-12.175 27.429-27.429 0-15.148-12.175-27.429-27.429-27.429-15.148 0-27.429 12.175-27.429 27.429zM548.571 566.857c0 15.148 12.175 27.429 27.429 27.429 15.148 0 27.429-12.175 27.429-27.429 0-15.148-12.175-27.429-27.429-27.429-15.148 0-27.429 12.175-27.429 27.429zM548.571 493.714c0 15.148 12.175 27.429 27.429 27.429 15.148 0 27.429-12.175 27.429-27.429 0-15.148-12.175-27.429-27.429-27.429-15.148 0-27.429 12.175-27.429 27.429zM402.286 420.571c0 15.148 12.175 27.429 27.429 27.429 15.148 0 27.429-12.175 27.429-27.429 0-15.148-12.175-27.429-27.429-27.429-15.148 0-27.429 12.175-27.429 27.429zM402.286 347.429c0 15.148 12.175 27.429 27.429 27.429 15.148 0 27.429-12.175 27.429-27.429 0-15.148-12.175-27.429-27.429-27.429-15.148 0-27.429 12.175-27.429 27.429zM402.286 274.286c0 15.148 12.175 27.429 27.429 27.429 15.148 0 27.429-12.175 27.429-27.429 0-15.148-12.175-27.429-27.429-27.429-15.148 0-27.429 12.175-27.429 27.429zM402.286 201.143c0 15.148 12.175 27.429 27.429 27.429 15.148 0 27.429-12.175 27.429-27.429 0-15.148-12.175-27.429-27.429-27.429-15.148 0-27.429 12.175-27.429 27.429zM548.571 420.571c0 15.148 12.175 27.429 27.429 27.429 15.148 0 27.429-12.175 27.429-27.429 0-15.148-12.175-27.429-27.429-27.429-15.148 0-27.429 12.175-27.429 27.429zM548.571 347.429c0 15.148 12.175 27.429 27.429 27.429 15.148 0 27.429-12.175 27.429-27.429 0-15.148-12.175-27.429-27.429-27.429-15.148 0-27.429 12.175-27.429 27.429zM548.571 274.286c0 15.148 12.175 27.429 27.429 27.429 15.148 0 27.429-12.175 27.429-27.429 0-15.148-12.175-27.429-27.429-27.429-15.148 0-27.429 12.175-27.429 27.429zM548.571 201.143c0 15.148 12.175 27.429 27.429 27.429 15.148 0 27.429-12.175 27.429-27.429 0-15.148-12.175-27.429-27.429-27.429-15.148 0-27.429 12.175-27.429 27.429zM768 786.286c0 15.148 12.175 27.429 27.429 27.429 15.148 0 27.429-12.175 27.429-27.429 0-15.148-12.175-27.429-27.429-27.429-15.148 0-27.429 12.175-27.429 27.429zM694.857 786.286c0 15.148 12.175 27.429 27.429 27.429 15.148 0 27.429-12.175 27.429-27.429 0-15.148-12.175-27.429-27.429-27.429-15.148 0-27.429 12.175-27.429 27.429zM841.143 786.286c0 15.148 12.175 27.429 27.429 27.429 15.148 0 27.429-12.175 27.429-27.429 0-15.148-12.175-27.429-27.429-27.429-15.148 0-27.429 12.175-27.429 27.429zM694.857 713.143c0 15.148 12.175 27.429 27.429 27.429 15.148 0 27.429-12.175 27.429-27.429 0-15.148-12.175-27.429-27.429-27.429-15.148 0-27.429 12.175-27.429 27.429zM841.143 713.143c0 15.148 12.175 27.429 27.429 27.429 15.148 0 27.429-12.175 27.429-27.429 0-15.148-12.175-27.429-27.429-27.429-15.148 0-27.429 12.175-27.429 27.429zM694.857 640c0 15.148 12.175 27.429 27.429 27.429 15.148 0 27.429-12.175 27.429-27.429 0-15.148-12.175-27.429-27.429-27.429-15.148 0-27.429 12.175-27.429 27.429zM694.857 566.857c0 15.148 12.175 27.429 27.429 27.429 15.148 0 27.429-12.175 27.429-27.429 0-15.148-12.175-27.429-27.429-27.429-15.148 0-27.429 12.175-27.429 27.429zM694.857 493.714c0 15.148 12.175 27.429 27.429 27.429 15.148 0 27.429-12.175 27.429-27.429 0-15.148-12.175-27.429-27.429-27.429-15.148 0-27.429 12.175-27.429 27.429zM841.143 640c0 15.148 12.175 27.429 27.429 27.429 15.148 0 27.429-12.175 27.429-27.429 0-15.148-12.175-27.429-27.429-27.429-15.148 0-27.429 12.175-27.429 27.429zM841.143 566.857c0 15.148 12.175 27.429 27.429 27.429 15.148 0 27.429-12.175 27.429-27.429 0-15.148-12.175-27.429-27.429-27.429-15.148 0-27.429 12.175-27.429 27.429zM841.143 493.714c0 15.148 12.175 27.429 27.429 27.429 15.148 0 27.429-12.175 27.429-27.429 0-15.148-12.175-27.429-27.429-27.429-15.148 0-27.429 12.175-27.429 27.429zM694.857 420.571c0 15.148 12.175 27.429 27.429 27.429 15.148 0 27.429-12.175 27.429-27.429 0-15.148-12.175-27.429-27.429-27.429-15.148 0-27.429 12.175-27.429 27.429zM841.143 128c0 15.148 12.175 27.429 27.429 27.429 15.148 0 27.429-12.175 27.429-27.429 0-15.148-12.175-27.429-27.429-27.429-15.148 0-27.429 12.175-27.429 27.429zM841.143 347.429c0 15.148 12.175 27.429 27.429 27.429 15.148 0 27.429-12.175 27.429-27.429 0-15.148-12.175-27.429-27.429-27.429-15.148 0-27.429 12.175-27.429 27.429zM841.143 420.571c0 15.148 12.175 27.429 27.429 27.429 15.148 0 27.429-12.175 27.429-27.429 0-15.148-12.175-27.429-27.429-27.429-15.148 0-27.429 12.175-27.429 27.429zM694.857 201.143c0 15.148 12.175 27.429 27.429 27.429 15.148 0 27.429-12.175 27.429-27.429 0-15.148-12.175-27.429-27.429-27.429-15.148 0-27.429 12.175-27.429 27.429zM694.857 128c0 15.148 12.175 27.429 27.429 27.429 15.148 0 27.429-12.175 27.429-27.429 0-15.148-12.175-27.429-27.429-27.429-15.148 0-27.429 12.175-27.429 27.429zM694.857 274.286c0 15.148 12.175 27.429 27.429 27.429 15.148 0 27.429-12.175 27.429-27.429 0-15.148-12.175-27.429-27.429-27.429-15.148 0-27.429 12.175-27.429 27.429zM694.857 347.429c0 15.148 12.175 27.429 27.429 27.429 15.148 0 27.429-12.175 27.429-27.429 0-15.148-12.175-27.429-27.429-27.429-15.148 0-27.429 12.175-27.429 27.429zM841.143 201.143c0 15.148 12.175 27.429 27.429 27.429 15.148 0 27.429-12.175 27.429-27.429 0-15.148-12.175-27.429-27.429-27.429-15.148 0-27.429 12.175-27.429 27.429zM841.143 274.286c0 15.148 12.175 27.429 27.429 27.429 15.148 0 27.429-12.175 27.429-27.429 0-15.148-12.175-27.429-27.429-27.429-15.148 0-27.429 12.175-27.429 27.429z" />
<glyph unicode="&#xe913;" glyph-name="icon_block" d="M689.797 687.904c-49.674 36.903-111.19 58.762-177.797 58.762-164.613 0-298.667-133.718-298.667-298.667 0-66.534 21.845-128.076 58.768-177.792l417.696 417.696zM755.491 620.851l-416.348-416.348c48.787-34.725 108.44-55.169 172.857-55.169 164.613 0 298.667 133.718 298.667 298.667 0 64.347-20.432 124.025-55.175 172.851zM128 448c0 212.077 171.876 384 384 384 212.077 0 384-171.876 384-384 0-212.077-171.876-384-384-384-212.077 0-384 171.876-384 384z" />
<glyph unicode="&#xe914;" glyph-name="icon_close" d="M512 514.374l-235.211 235.211c-18.392 18.392-48.031 18.57-66.488 0.114-18.329-18.329-18.271-48.102 0.114-66.488l235.211-235.211-235.211-235.211c-18.385-18.385-18.443-48.159-0.114-66.488 18.456-18.456 48.096-18.278 66.488 0.114l235.211 235.211 235.211-235.211c18.392-18.392 48.031-18.57 66.488-0.114 18.329 18.329 18.271 48.102-0.114 66.488l-235.211 235.211 235.211 235.211c18.385 18.385 18.443 48.159 0.114 66.488-18.456 18.456-48.096 18.278-66.488-0.114l-235.211-235.211z" />
<glyph unicode="&#xe915;" glyph-name="icon_date" d="M298.667 704h-128v-170.667h682.667v170.667h-128v-43.060c0-23.347-18.938-42.273-42.667-42.273-23.564 0-42.667 19.242-42.667 42.273v43.060h-256v-43.060c0-23.347-18.938-42.273-42.667-42.273-23.564 0-42.667 19.242-42.667 42.273v43.060zM384 789.333h256v43.060c0 23.347 18.938 42.273 42.667 42.273 23.564 0 42.667-19.242 42.667-42.273v-43.060h171.016c23.371 0 42.317-18.984 42.317-42.385v-683.23c0-23.409-19.426-42.385-42.317-42.385h-768.699c-23.371 0-42.317 18.984-42.317 42.385v683.23c0 23.409 19.426 42.385 42.317 42.385h171.016v43.060c0 23.347 18.938 42.273 42.667 42.273 23.564 0 42.667-19.242 42.667-42.273v-43.060zM853.333 448h-682.667v-341.333h682.667v341.333z" />
<glyph unicode="&#xe916;" glyph-name="icon_delete" d="M639.998 704h170.631c23.585 0 42.704-18.938 42.704-42.667 0-23.564-18.971-42.667-42.704-42.667h-42.629v-511.681c0-23.741-19.446-42.986-42.772-42.986h-426.456c-23.622 0-42.772 19.154-42.772 42.986v511.681h-42.629c-23.585 0-42.704 18.938-42.704 42.667 0 23.564 18.971 42.667 42.704 42.667h170.631c-0.001 0.133-0.002 0.266-0.002 0.4v84.534c0 23.785 19.242 43.066 42.273 43.066h171.454c23.347 0 42.273-18.916 42.273-43.066v-84.534c0-0.133-0.001-0.267-0.002-0.4zM341.333 618.667v-469.333h341.333v469.333h-341.333zM469.333 746.667v-42.667h85.333v42.667h-85.333z" />
<glyph unicode="&#xe917;" glyph-name="icon_deplicate" d="M682.667 661.333h127.894c23.622 0 42.772-19.198 42.772-42.959v-511.416c0-23.725-19.446-42.959-42.772-42.959h-426.456c-23.622 0-42.772 19.198-42.772 42.959v511.416c0 23.725 19.446 42.959 42.772 42.959h213.228v85.333h85.333v-85.333zM170.667 320h170.667v-85.333h-127.6c-23.785 0-43.066 18.938-43.066 42.667v42.667zM170.667 746.667h85.333v-426.667h-85.333v426.667zM170.667 789.333c0 23.564 19.446 42.667 42.772 42.667h426.456c23.622 0 42.772-18.938 42.772-42.667v-42.667h-512v42.667zM426.667 576v-426.667h341.333v426.667h-341.333z" />
<glyph unicode="&#xe918;" glyph-name="icon_download" d="M469.333 386.333l-124.66 124.66c-18.339 18.339-47.936 18.475-66.392 0.018-18.329-18.329-18.34-48.034 0.018-66.392l195.769-195.769c8.913-8.913 20.486-13.526 32.146-13.795 1.892-0.256 3.823-0.389 5.785-0.389 2.025 0 4.014 0.139 5.96 0.407 11.446 0.418 22.762 5.024 31.513 13.776l195.769 195.769c18.358 18.358 18.347 48.063 0.018 66.392-18.456 18.456-48.053 18.32-66.392-0.018l-124.202-124.202v359.94c0 23.51-19.103 42.603-42.667 42.603-23.728 0-42.667-19.074-42.667-42.603v-360.398zM256 106.667c0 23.564 19.446 42.667 42.772 42.667h426.456c23.622 0 42.772-18.938 42.772-42.667 0-23.564-19.446-42.667-42.772-42.667h-426.456c-23.622 0-42.772 18.938-42.772 42.667z" />
<glyph unicode="&#xe919;" glyph-name="icon_edit" d="M725.333 174.345v316.518c0 23.456 18.938 42.47 42.667 42.47 23.564 0 42.667-19.442 42.667-42.47v-341.726c0-2.988-0.307-5.904-0.893-8.718 0.585-2.818 0.893-5.741 0.893-8.741 0-23.564-19.154-42.667-42.986-42.667h-554.028c-23.741 0-42.986 18.938-42.986 42.667 0 3.064 0.324 6.052 0.94 8.933-0.616 2.913-0.94 5.937-0.94 9.041v554.028c0 0.053 0 0.107 0 0.16s0 0.106 0 0.16c0 23.564 19.442 42.667 42.47 42.667h341.726c23.456 0 42.47-18.938 42.47-42.667 0-23.564-19.442-42.667-42.47-42.667h-298.863v-486.988h469.333zM502.52 437.203l9.051 75.425 66.374-66.374-75.425-9.051zM843.365 844.422c16.704 16.704 43.676 16.813 60.324 0.165l6.214-6.214c16.613-16.613 16.329-43.83-0.165-60.324l-331.794-331.794-66.374 66.374 331.794 331.794z" />
<glyph unicode="&#xe91a;" glyph-name="icon_help" d="M512 64c-212.077 0-384 171.923-384 384s171.923 384 384 384c212.077 0 384-171.923 384-384s-171.923-384-384-384zM509.917 227.958c11.472 0 21.583 3.889 30.333 11.667s13.125 18.472 13.125 32.083c0 12.25-4.181 22.556-12.542 30.917s-18.667 12.542-30.917 12.542c-12.445 0-22.944-4.181-31.5-12.542s-12.833-18.667-12.833-30.917c0-13.806 4.424-24.549 13.271-32.229s19.201-11.521 31.063-11.521zM367.583 547.625c0-8.944 3.743-17.257 11.229-24.937s16.674-11.521 27.562-11.521c18.472 0 31.014 10.986 37.625 32.958 7 21 15.556 36.896 25.667 47.687s25.861 16.187 47.25 16.187c18.278 0 33.201-5.347 44.771-16.042s17.354-23.819 17.354-39.375c0-7.972-1.896-15.361-5.688-22.167s-8.458-12.979-14-18.521c-5.542-5.542-14.535-13.757-26.979-24.646-14.195-12.445-25.472-23.187-33.833-32.229s-15.069-19.542-20.125-31.5c-5.056-11.958-7.583-26.104-7.583-42.437 0-13.028 3.451-22.847 10.354-29.458s15.41-9.917 25.521-9.917c19.445 0 31.014 10.111 34.708 30.333 2.139 9.528 3.743 16.187 4.813 19.979s2.576 7.583 4.521 11.375c1.944 3.792 4.91 7.972 8.896 12.542s9.285 9.868 15.896 15.896c23.917 21.389 40.493 36.604 49.729 45.646s17.208 19.785 23.917 32.229c6.708 12.445 10.063 26.93 10.063 43.458 0 21-5.882 40.444-17.646 58.333s-28.437 32.035-50.021 42.438c-21.583 10.403-46.472 15.604-74.667 15.604-30.333 0-56.875-6.222-79.625-18.667s-40.055-28.146-51.917-47.104c-11.861-18.958-17.792-37.674-17.792-56.146z" />
<glyph unicode="&#xe91b;" glyph-name="icon_invite" d="M556.56 430.933l230.4 230.4h-549.919l230.4-230.4h89.119zM566.4 338.054c-3.105-0.647-6.323-0.987-9.621-0.987h-108.779c-6.48 0-12.654 1.313-18.269 3.688-5.042 2.039-10.336 5.476-14.918 10.058l-201.48 201.48v-317.626h597.333v317.626l-201.48-201.48c-11.62-11.62-27.817-15.873-42.787-12.76zM128 703.708c0 23.725 18.984 42.959 42.385 42.959h683.23c23.409 0 42.385-19.198 42.385-42.959v-511.416c0-23.725-18.984-42.959-42.385-42.959h-683.23c-23.409 0-42.385 19.198-42.385 42.959v511.416z" />
<glyph unicode="&#xe91c;" glyph-name="icon_lock" d="M679.034 618.667h88.674c23.725 0 42.959-19.446 42.959-42.772v-426.456c0-23.622-19.198-42.772-42.959-42.772h-511.416c-23.725 0-42.959 19.446-42.959 42.772v426.456c0 23.622 19.198 42.772 42.959 42.772h85.041v42.667c0 70.692 57.132 128 128.071 128h85.191c70.732 0 128.071-57.451 128.071-128v-42.667h-3.633zM298.667 533.333v-341.333h426.667v341.333h-426.667zM469.333 404.934c0 23.785 18.938 43.066 42.667 43.066 23.564 0 42.667-18.916 42.667-43.066v-84.534c0-23.785-18.938-43.066-42.667-43.066-23.564 0-42.667 18.916-42.667 43.066v84.534zM426.667 661.333v-42.667h170.667v42.667c0 23.728-19.281 42.667-43.066 42.667h-84.534c-24.15 0-43.066-19.103-43.066-42.667z" />
<glyph unicode="&#xe91d;" glyph-name="icon_other" d="M512 362.667c-47.128 0-85.333 37.876-85.333 85.333 0 47.128 37.876 85.333 85.333 85.333 47.128 0 85.333-37.876 85.333-85.333 0-47.128-37.876-85.333-85.333-85.333zM213.333 362.667c-47.128 0-85.333 37.876-85.333 85.333 0 47.128 37.876 85.333 85.333 85.333 47.128 0 85.333-37.876 85.333-85.333 0-47.128-37.876-85.333-85.333-85.333zM810.667 362.667c-47.128 0-85.333 37.876-85.333 85.333 0 47.128 37.876 85.333 85.333 85.333 47.128 0 85.333-37.876 85.333-85.333 0-47.128-37.876-85.333-85.333-85.333z" />
<glyph unicode="&#xe91e;" glyph-name="icon_page_end" d="M556.625 437.539c0.046-10.947-4.126-21.887-12.477-30.237l-181.199-181.199c-16.412-16.412-43.588-16.573-60.25 0.090-16.779 16.779-16.702 43.637-0.090 60.25l151.096 151.096-151.096 151.096c-16.613 16.613-16.689 43.472 0.090 60.25 16.662 16.662 43.838 16.502 60.25 0.090l181.199-181.199c8.351-8.351 12.523-19.29 12.477-30.237zM812.625 437.539c0.046-10.947-4.126-21.887-12.477-30.237l-181.199-181.199c-16.412-16.412-43.588-16.573-60.25 0.090-16.779 16.779-16.702 43.637-0.090 60.25l151.096 151.096-151.096 151.096c-16.613 16.613-16.689 43.472 0.090 60.25 16.662 16.662 43.838 16.502 60.25 0.090l181.199-181.199c8.351-8.351 12.523-19.29 12.477-30.237z" />
<glyph unicode="&#xe91f;" glyph-name="icon_page_first" d="M316.253 437.539l151.096-151.096c16.613-16.613 16.689-43.472-0.090-60.25-16.662-16.662-43.838-16.502-60.25-0.090l-181.199 181.199c-8.351 8.351-12.523 19.29-12.477 30.237-0.046 10.947 4.126 21.887 12.477 30.237l181.199 181.199c16.412 16.412 43.588 16.573 60.25-0.090 16.779-16.779 16.702-43.637 0.090-60.25l-151.096-151.096zM572.253 437.539l151.096-151.096c16.613-16.613 16.689-43.472-0.090-60.25-16.662-16.662-43.838-16.502-60.25-0.090l-181.199 181.199c-8.351 8.351-12.523 19.29-12.477 30.237-0.046 10.947 4.126 21.887 12.477 30.237l181.199 181.199c16.412 16.412 43.588 16.573 60.25-0.090 16.779-16.779 16.702-43.637 0.090-60.25l-151.096-151.096z" />
<glyph unicode="&#xe920;" glyph-name="icon_page_next" d="M641.959 437.539c0.046 10.947-4.126 21.887-12.477 30.237l-181.199 181.199c-16.412 16.412-43.588 16.573-60.25-0.090-16.779-16.779-16.702-43.637-0.090-60.25l151.096-151.096-151.096-151.096c-16.613-16.613-16.689-43.472 0.090-60.25 16.662-16.662 43.838-16.502 60.25-0.090l181.199 181.199c8.351 8.351 12.523 19.29 12.477 30.237z" />
<glyph unicode="&#xe921;" glyph-name="icon_page_prev" d="M341.334 437.539c-0.046 10.947 4.126 21.887 12.477 30.237l181.199 181.199c16.412 16.412 43.588 16.573 60.25-0.090 16.779-16.779 16.702-43.637 0.090-60.25l-151.096-151.096 151.096-151.096c16.613-16.613 16.689-43.472-0.090-60.25-16.662-16.662-43.838-16.502-60.25-0.090l-181.199 181.199c-8.351 8.351-12.523 19.29-12.477 30.237z" />
<glyph unicode="&#xe922;" glyph-name="icon_pageback" d="M237.040 405.333l221.961-221.961c18.77-18.77 18.553-48.269 0.224-66.598-18.456-18.456-48.145-18.228-66.598 0.224l-295.217 295.217c-10.319 10.319-14.899 23.88-13.887 37.045-1.012 13.165 3.568 26.726 13.887 37.045l295.217 295.217c18.452 18.452 48.141 18.68 66.598 0.224 18.329-18.329 18.546-47.828-0.224-66.598l-224.482-224.482h661.83c23.371 0 42.317-18.938 42.317-42.667 0-23.564-19.426-42.667-42.317-42.667h-659.309z" />
<glyph unicode="&#xe923;" glyph-name="icon_placeholder_image" d="M42.667 789.615c0 23.409 18.75 42.385 42.772 42.385h853.123c23.622 0 42.772-18.984 42.772-42.385v-683.23c0-23.409-18.75-42.385-42.772-42.385h-853.123c-23.622 0-42.772 18.984-42.772 42.385v683.23zM128 746.667v-597.333h768v597.333h-768zM298.667 586.667c0 29.455 23.673 53.333 53.333 53.333 29.455 0 53.333-23.673 53.333-53.333 0-29.455-23.673-53.333-53.333-53.333-29.455 0-53.333 23.673-53.333 53.333zM415.066 303.175l-52.441 52.491-119.112-119.196c-16.656-16.668-43.671-16.678-60.34-0.021s-16.678 43.671-0.021 60.34l149.296 149.402c16.666 16.678 43.701 16.676 60.365-0.004l51.798-51.848 120.564 125.844c16.797 17.532 44.817 17.534 61.616 0.003l214.682-224.037c16.303-17.014 15.727-44.023-1.286-60.326s-44.023-15.727-60.326 1.286l-183.872 191.885-119.928-125.181c-16.555-17.28-44.081-17.568-60.994-0.639z" />
<glyph unicode="&#xe924;" glyph-name="icon_pulldown" d="M567.405 533.333h-195.48c-30.39 0-39.77-19.494-20.716-43.288l28.484-35.617c19.055-23.794 50.177-62.684 69.183-86.478l28.533-35.666c19.006-23.794 50.177-23.794 69.183 0l28.533 35.666c19.006 23.794 50.128 62.684 69.183 86.478l28.484 35.617c19.055 23.794 9.674 43.288-20.716 43.288h-84.67z" />
<glyph unicode="&#xe925;" glyph-name="icon_rateDown" d="M550.069 281.052v444.068c0 21.326-17.79 38.614-38.351 38.614-21.181 0-38.351-17.864-38.351-38.614v-443.503l-152.148 152.148c-15.341 15.341-39.135 14.852-54.112-0.125-14.539-14.539-15.033-39.204-0.125-54.112l217.197-217.197c7.836-7.836 17.876-11.542 27.821-11.297 9.945-0.245 19.985 3.461 27.821 11.297l217.197 217.197c14.908 14.908 14.414 39.573-0.125 54.112-14.977 14.977-38.771 15.466-54.112 0.125l-152.712-152.712z" />
<glyph unicode="&#xe926;" glyph-name="icon_rateSame" d="M688.326 495.447h-444.068c-21.326 0-38.614-17.79-38.614-38.351 0-21.181 17.864-38.351 38.614-38.351h443.503l-152.148-152.148c-15.341-15.341-14.852-39.135 0.125-54.112 14.539-14.539 39.204-15.033 54.112-0.125l217.197 217.197c7.836 7.836 11.542 17.876 11.297 27.821 0.245 9.945-3.461 19.985-11.297 27.821l-217.197 217.197c-14.908 14.908-39.573 14.414-54.112-0.125-14.977-14.977-15.466-38.771-0.125-54.112l152.712-152.712z" />
<glyph unicode="&#xe927;" glyph-name="icon_rateUp" d="M550.069 633.703v-444.068c0-21.326-17.79-38.614-38.351-38.614-21.181 0-38.351 17.864-38.351 38.614v443.503l-152.148-152.148c-15.341-15.341-39.135-14.852-54.112 0.125-14.539 14.539-15.033 39.204-0.125 54.112l217.197 217.197c7.836 7.836 17.876 11.542 27.821 11.297 9.945 0.245 19.985-3.461 27.821-11.297l217.197-217.197c14.908-14.908 14.414-39.573-0.125-54.112-14.977-14.977-38.771-15.466-54.112-0.125l-152.712 152.712z" />
<glyph unicode="&#xe928;" glyph-name="icon_reload" d="M799.894 601.285l87.153-35.198c21.986-8.817 46.732 1.713 55.564 23.565s-1.722 46.69-23.565 55.564l-197.8 79.906c-22.069 8.835-46.699-1.764-55.564-23.565l-79.906-197.8c-8.832-21.852 1.713-46.732 23.565-55.564 2.374-0.941 4.75-1.664 7.17-2.178 19.907-4.231 40.502 6.265 48.394 25.744l45.418 112.459c31.67-45.972 49.142-100.984 49.142-157.549 0-152.917-124.416-277.333-277.333-277.333s-277.333 124.416-277.333 277.333c0 152.917 124.416 277.333 277.333 277.333 23.552 0 42.667 19.115 42.667 42.667s-19.115 42.667-42.667 42.667c-199.979 0-362.667-162.688-362.667-362.667s162.688-362.667 362.667-362.667c199.979 0 362.667 162.688 362.667 362.667 0 61.505-15.785 121.574-44.906 174.618z" />
<glyph unicode="&#xe929;" glyph-name="icon_remove" d="M128 448c0 212.077 171.876 384 384 384 212.077 0 384-171.876 384-384 0-212.077-171.876-384-384-384-212.077 0-384 171.876-384 384zM213.333 448c0-164.613 133.718-298.667 298.667-298.667 164.613 0 298.667 133.718 298.667 298.667 0 164.613-133.718 298.667-298.667 298.667-164.613 0-298.667-133.718-298.667-298.667zM640.127 490.667c23.494 0 42.54-18.938 42.54-42.667 0-23.564-19.33-42.667-42.54-42.667h-256.253c-23.494 0-42.54 18.938-42.54 42.667 0 23.564 19.33 42.667 42.54 42.667h256.253z" />
<glyph unicode="&#xe92a;" glyph-name="icon_remove02" d="M810.667 448v0c0-25.6-17.067-42.667-42.667-42.667h-512c-25.6 0-42.667 17.067-42.667 42.667v0c0 25.6 17.067 42.667 42.667 42.667h512c25.6 0 42.667-17.067 42.667-42.667z" />
<glyph unicode="&#xe92b;" glyph-name="icon_reply" d="M426.667 704h-42.667c-117.821 0-213.333-95.512-213.333-213.333s95.512-213.333 213.333-213.333h366.327l-80.069 80.069c-16.711 16.711-16.867 43.65-0.088 60.428 16.662 16.662 43.381 16.959 60.428-0.088l150.673-150.673c8.724-8.724 12.936-20.235 12.582-31.634 0.354-11.398-3.858-22.909-12.582-31.634l-150.673-150.673c-17.047-17.047-43.766-16.751-60.428-0.088-16.779 16.779-16.623 43.717 0.088 60.428l78.531 78.531h-364.789c-164.949 0-298.667 133.717-298.667 298.667s133.717 298.667 298.667 298.667h170.667c56.889 0 56.889-85.333 0-85.333h-128z" />
<glyph unicode="&#xe92c;" glyph-name="icon_search" d="M668.379 357.995l187.873-187.873c18.385-18.385 18.443-48.159 0.114-66.488-18.456-18.456-48.096-18.278-66.488 0.114l-187.879 187.879c-49.279-35.827-109.891-56.96-175.333-56.96-164.949 0-298.667 134.053-298.667 298.667 0 164.949 134.053 298.667 298.667 298.667 164.949 0 298.667-134.053 298.667-298.667 0-65.513-21.146-126.099-56.955-175.338zM213.333 533.333c0-117.581 95.513-213.333 213.333-213.333 117.581 0 213.333 95.513 213.333 213.333 0 117.581-95.513 213.333-213.333 213.333-117.581 0-213.333-95.513-213.333-213.333z" />
<glyph unicode="&#xe92d;" glyph-name="icon_selectImage_uploard" d="M506.215 788.945c-11.661-0.268-23.233-4.882-32.146-13.795l-195.769-195.769c-18.358-18.358-18.347-48.063-0.018-66.392 18.456-18.456 48.053-18.32 66.392 0.018l124.66 124.66v-360.398c0-23.529 18.938-42.603 42.667-42.603 23.564 0 42.667 19.093 42.667 42.603v359.94l124.202-124.202c18.339-18.339 47.936-18.475 66.392-0.018 18.329 18.329 18.34 48.034-0.018 66.392l-195.769 195.769c-8.752 8.752-20.068 13.358-31.513 13.776-1.946 0.269-3.936 0.407-5.96 0.407-1.962 0-3.893-0.132-5.785-0.389zM256 106.667c0 23.564 19.446 42.667 42.772 42.667h426.456c23.622 0 42.772-18.938 42.772-42.667 0-23.564-19.446-42.667-42.772-42.667h-426.456c-23.622 0-42.772 18.938-42.772 42.667z" />
<glyph unicode="&#xe92e;" glyph-name="icon_setting" d="M239.229 341.896c-3.346 8.587-6.281 17.353-8.791 26.271l36.964 10.405-2.406-38.325-62.375 3.992c-38.928 0-70.355 31.427-70.355 70.355v66.814c0 38.928 31.427 70.355 67.949 70.279l64.781 4.067 2.406-38.325-36.964 10.405c2.513 8.929 5.452 17.705 8.803 26.303 1.632 4.187 3.361 8.331 5.187 12.43 3.865 8.677 8.16 17.153 12.872 25.399l33.341-19.052-28.335-25.917-42.392 46.405c-27.487 27.487-27.487 71.991 0 99.478l47.206 47.206c27.487 27.487 71.991 27.487 98.242 1.182l47.641-43.574-25.917-28.335-19.052 33.341c8.25 4.715 16.731 9.013 25.414 12.88 4.102 1.827 8.249 3.557 12.438 5.19 8.584 3.346 17.345 6.28 26.258 8.791l10.412-36.962-38.324 2.415 4.005 62.366c0 38.928 31.427 70.355 70.355 70.355h66.814c38.928 0 70.355-31.427 70.279-67.949l4.067-64.781-38.325-2.406 10.405 36.964c8.929-2.513 17.705-5.452 26.303-8.803 4.187-1.632 8.331-3.361 12.43-5.187 8.677-3.865 17.153-8.16 25.398-12.872l-19.052-33.341-25.917 28.335 46.405 42.392c27.487 27.487 71.991 27.487 99.478 0l47.206-47.206c27.487-27.487 27.487-71.991 1.182-98.242l-43.574-47.641-28.335 25.917 33.341 19.052c4.715-8.251 9.013-16.732 12.879-25.415 1.828-4.105 3.559-8.254 5.192-12.446 3.346-8.587 6.281-17.353 8.791-26.271l-36.964-10.405 2.406 38.325 62.375-3.991c38.928 0 70.355-31.427 70.355-70.355v-66.814c0-38.928-31.427-70.355-67.949-70.279l-64.781-4.067-2.406 38.325 36.964-10.405c-2.513-8.929-5.452-17.705-8.803-26.303-1.632-4.187-3.361-8.331-5.187-12.43-3.865-8.677-8.16-17.153-12.872-25.398l-33.341 19.052 28.335 25.917 42.392-46.405c27.487-27.487 27.487-71.991 0-99.478l-47.206-47.206c-27.487-27.487-71.991-27.487-98.242-1.182l-47.641 43.574 25.917 28.335 19.052-33.341c-8.251-4.715-16.732-9.013-25.415-12.879-4.105-1.828-8.254-3.559-12.446-5.192-8.587-3.346-17.353-6.281-26.271-8.791l-10.405 36.964 38.325-2.406-3.992-62.375c0-38.928-31.427-70.355-70.355-70.355h-66.814c-38.928 0-70.355 31.427-70.279 67.94l-4.081 64.781 38.324 2.415-10.412-36.962c-8.924 2.514-17.696 5.453-26.29 8.804-4.184 1.631-8.325 3.36-12.422 5.185-8.677 3.865-17.153 8.161-25.398 12.873l19.052 33.341 25.917-28.335-46.405-42.392c-27.487-27.487-71.991-27.487-99.478 0l-47.206 47.206c-27.487 27.487-27.487 71.991-1.182 98.242l43.574 47.641 28.335-25.917-33.341-19.052c-4.715 8.251-9.013 16.732-12.879 25.415-1.828 4.105-3.559 8.254-5.192 12.446zM205.027 420.963l0.175-0.011c-0.063 0.011-0.121 0.015-0.175 0.011zM275.403 646.471l0.158-0.173c-0.050 0.062-0.103 0.12-0.158 0.173zM312.292 685.78c0.134-0.134 0.274-0.262 0.417-0.382l-0.417 0.382zM484.962 754.964c0.004-0.054 0-0.112-0.011-0.174l0.011 0.174zM818.973 475.037c-0.054-0.004-0.112 0-0.175 0.011l0.175-0.011zM821.379 421.038c-0.255 0-0.508-0.016-0.757-0.047l0.757 0.047zM748.597 249.529l-0.158 0.173c0.050-0.062 0.103-0.12 0.158-0.173zM711.708 210.22c-0.134 0.134-0.274 0.262-0.417 0.382l0.417-0.382zM539.037 141.027l0.011 0.175c-0.011-0.063-0.015-0.121-0.011-0.175zM485.038 138.621c0 0.256-0.016 0.51-0.047 0.76l0.047-0.76zM313.529 211.403l0.173 0.158c-0.062-0.050-0.12-0.103-0.173-0.158zM274.22 248.292l0.382 0.417c-0.12-0.143-0.247-0.282-0.382-0.417zM269.808 416.896c16.28-1.022 30.138-12.218 34.558-27.92 4.625-16.43 11.213-32.132 19.617-46.838 8.277-14.485 6.255-32.658-5.005-44.968l-40.391-44.11 38.45-38.45 44.134 40.367c12.311 11.26 30.483 13.282 44.968 5.005 14.703-8.401 30.407-14.992 46.83-19.619 15.695-4.421 26.887-18.273 27.912-34.547l3.759-60.75h54.651l3.813 60.741c1.022 16.28 12.218 30.138 27.92 34.558 16.43 4.625 32.132 11.213 46.838 19.617 14.485 8.277 32.658 6.255 44.968-5.005l44.11-40.391 38.45 38.45-40.367 44.134c-11.26 12.311-13.282 30.483-5.005 44.968 8.403 14.706 14.992 30.408 19.617 46.838 4.42 15.702 18.277 26.898 34.558 27.92l60.741 3.745v54.65l-60.741 3.813c-16.28 1.022-30.138 12.218-34.558 27.92-4.625 16.43-11.213 32.132-19.617 46.838-8.277 14.485-6.255 32.658 5.005 44.968l40.391 44.11-38.45 38.45-44.134-40.367c-12.311-11.26-30.483-13.282-44.968-5.005-14.706 8.403-30.408 14.992-46.838 19.617-15.702 4.42-26.898 18.277-27.92 34.558l-3.745 60.741h-54.651l-3.828-60.75c-1.025-16.274-12.217-30.126-27.912-34.547-16.424-4.626-32.128-11.217-46.83-19.619-14.485-8.277-32.658-6.255-44.968 5.005l-44.11 40.391-38.45-38.45 40.367-44.134c11.26-12.311 13.282-30.483 5.005-44.968-8.403-14.706-14.992-30.408-19.617-46.838-4.42-15.702-18.277-26.898-34.558-27.92l-60.741-3.745v-54.65l60.741-3.813zM366.933 448c0 80.121 64.946 145.067 145.067 145.067s145.067-64.946 145.067-145.067c0-80.121-64.946-145.067-145.067-145.067s-145.067 64.946-145.067 145.067zM443.733 448c0-37.705 30.562-68.267 68.267-68.267s68.267 30.562 68.267 68.267c0 37.705-30.562 68.267-68.267 68.267s-68.267-30.562-68.267-68.267z" />
<glyph unicode="&#xe92f;" glyph-name="icon_sort_card_horizontal" d="M346.71 490.667c18.946 73.61 85.766 128 165.29 128s146.344-54.39 165.29-128h152.418l-82.047 82.047c-18.251 18.251-18.481 48.197-0.152 66.526 18.456 18.456 48.113 18.26 66.526-0.152l152.834-152.834c8.295-8.295 12.867-19.004 13.667-29.942 0.524-2.685 0.798-5.464 0.798-8.312 0-3.042-0.317-6.009-0.921-8.871-1.073-10.45-5.602-20.607-13.544-28.549l-152.834-152.834c-18.413-18.413-48.070-18.609-66.526-0.152-18.329 18.329-18.099 48.275 0.152 66.526l81.213 81.213h-151.584c-18.946-73.61-85.766-128-165.29-128s-146.344 54.39-165.29 128h-149.776l81.213-81.213c18.251-18.251 18.481-48.197 0.152-66.526-18.456-18.456-48.113-18.26-66.526 0.152l-152.834 152.834c-4.582 4.582-8.028 9.901-10.33 15.588-3.775 6.37-5.943 13.829-5.943 21.832 0 7.233 1.794 14.045 4.961 20.014 2.249 6.683 6.024 12.952 11.312 18.239l152.834 152.834c18.413 18.413 48.070 18.609 66.526 0.152 18.329-18.329 18.099-48.275-0.152-66.526l-82.047-82.047h150.61zM512 362.667c47.128 0 85.333 38.205 85.333 85.333s-38.205 85.333-85.333 85.333c-47.128 0-85.333-38.205-85.333-85.333s38.205-85.333 85.333-85.333z" />
<glyph unicode="&#xe930;" glyph-name="icon_sortEditable" d="M426.667 448c0 47.128 37.876 85.333 85.333 85.333 47.128 0 85.333-37.876 85.333-85.333 0-47.128-37.876-85.333-85.333-85.333-47.128 0-85.333 37.876-85.333 85.333zM426.667 746.667c0 47.128 37.876 85.333 85.333 85.333 47.128 0 85.333-37.876 85.333-85.333 0-47.128-37.876-85.333-85.333-85.333-47.128 0-85.333 37.876-85.333 85.333zM426.667 149.333c0 47.128 37.876 85.333 85.333 85.333 47.128 0 85.333-37.876 85.333-85.333 0-47.128-37.876-85.333-85.333-85.333-47.128 0-85.333 37.876-85.333 85.333z" />
<glyph unicode="&#xe931;" glyph-name="icon_status_error" d="M128 448c0 212.077 171.876 384 384 384 212.077 0 384-171.876 384-384 0-212.077-171.876-384-384-384-212.077 0-384 171.876-384 384zM213.333 448c0-164.613 133.718-298.667 298.667-298.667 164.613 0 298.667 133.718 298.667 298.667 0 164.613-133.718 298.667-298.667 298.667-164.613 0-298.667-133.718-298.667-298.667zM469.333 576.008c0 23.56 18.938 42.658 42.667 42.658 23.564 0 42.667-18.932 42.667-42.658v-128.016c0-23.56-18.938-42.658-42.667-42.658-23.564 0-42.667 18.932-42.667 42.658v128.016zM469.333 320c0 23.564 18.938 42.667 42.667 42.667 23.564 0 42.667-18.938 42.667-42.667 0-23.564-18.938-42.667-42.667-42.667-23.564 0-42.667 18.938-42.667 42.667z" />
<glyph unicode="&#xe932;" glyph-name="icon_status_safe" d="M128 448c0 212.077 171.876 384 384 384 212.077 0 384-171.876 384-384 0-212.077-171.876-384-384-384-212.077 0-384 171.876-384 384zM213.333 448c0-164.613 133.718-298.667 298.667-298.667 164.613 0 298.667 133.718 298.667 298.667 0 164.613-133.718 298.667-298.667 298.667-164.613 0-298.667-133.718-298.667-298.667zM396.553 465.25c-16.961 16.358-43.972 15.87-60.33-1.091s-15.87-43.972 1.091-60.33l87.492-84.384c16.478-15.893 42.562-15.948 59.107-0.126l200.481 191.711c17.031 16.286 17.635 43.294 1.349 60.325s-43.294 17.635-60.325 1.349l-170.866-163.392-57.999 55.938z" />
<glyph unicode="&#xe933;" glyph-name="icon_status_selected" d="M128 448c0 212.077 171.876 384 384 384 212.077 0 384-171.876 384-384 0-212.077-171.876-384-384-384-212.077 0-384 171.876-384 384zM396.553 465.25c-16.961 16.358-43.972 15.87-60.33-1.091s-15.87-43.972 1.091-60.33l87.492-84.384c16.478-15.893 42.562-15.948 59.107-0.126l200.481 191.711c17.031 16.286 17.635 43.294 1.349 60.325s-43.294 17.635-60.325 1.349l-170.866-163.392-57.999 55.938z" />
<glyph unicode="&#xe934;" glyph-name="icon_tag" d="M915.131 416.206c31.381-28.766 31.381-81.067 0-109.832l-261.505-261.505c-15.69-15.69-36.611-23.536-54.916-23.536s-39.226 7.845-54.916 23.536l-392.258 392.258c-15.69 13.075-23.535 33.996-23.535 54.916v261.505c0 44.456 33.996 78.452 78.452 78.452h261.505c20.92 0 41.841-7.845 54.916-23.535l392.258-392.258zM854.791 355.867l-395.209 395.489c3.625-3.589 6.584-4.689 8.374-4.689h-254.624v-254.624c0 1.79-1.1 4.75-4.689 8.374l3.231-2.951 386.836-386.836 257.642 257.531c-4.195-4.597-4.019-9.743 0.526-14.294l-2.087 1.999zM298.667 618.667c0 23.564 18.938 42.667 42.667 42.667 23.564 0 42.667-18.938 42.667-42.667 0-23.564-18.938-42.667-42.667-42.667-23.564 0-42.667 18.938-42.667 42.667z" />
<glyph unicode="&#xe935;" glyph-name="icon_unlock" d="M426.667 579.658v-3.658h-85.333v128c0 70.692 57.132 128 128.071 128h85.191c70.732 0 128.071-57.451 128.071-128v-42.667h-85.333v42.267c0 24.15-19.281 43.066-43.066 43.066h-84.534c-24.15 0-43.066-19.281-43.066-43.066v-123.943zM213.333 533.228c0 23.622 19.198 42.772 42.959 42.772h511.416c23.725 0 42.959-19.446 42.959-42.772v-426.456c0-23.622-19.198-42.772-42.959-42.772h-511.416c-23.725 0-42.959 19.446-42.959 42.772v426.456zM298.667 490.667v-341.333h426.667v341.333h-426.667zM469.333 362.267c0 23.785 18.938 43.066 42.667 43.066 23.564 0 42.667-18.916 42.667-43.066v-84.534c0-23.785-18.938-43.066-42.667-43.066-23.564 0-42.667 18.916-42.667 43.066v84.534z" />
<glyph unicode="&#xe936;" glyph-name="icon_user" d="M615.908 475.031c153.282-49.341 237.426-210.425 237.426-411.031 0-23.564-19.103-42.667-42.667-42.667h-597.333c-23.564 0-42.667 19.103-42.667 42.667 0 200.602 84.14 361.683 237.415 411.028-65.278 36.534-109.415 106.376-109.415 186.306 0 117.821 95.752 213.333 213.333 213.333 117.821 0 213.333-95.752 213.333-213.333 0-80.053-44.204-149.808-109.426-186.302zM257.466 106.667c246.123 0 272.462 0 509.069 0-12.457 177.594-103.802 298.667-254.534 298.667s-242.078-121.073-254.534-298.667zM384 661.333c0-70.549 57.308-128 128-128 70.549 0 128 57.308 128 128 0 70.549-57.308 128-128 128-70.549 0-128-57.308-128-128z" />
<glyph unicode="&#xe937;" glyph-name="locked" d="M928-64h-832c-17.664 0-32 14.304-32 32v512c0 17.696 14.336 32 32 32h96v128c0 176.736 143.264 320 320 320s320-143.264 320-320v-128h96c17.696 0 32-14.304 32-32v-512c0-17.696-14.304-32-32-32zM704 656c0 97.216-85.984 176-192 176s-192-78.784-192-176v-144h384v144z" />
<glyph unicode="&#xe938;" glyph-name="icon_users" d="M830.592 561.792h-7.936c19.424 33.504 30.688 72.288 30.688 113.792 0 125.664-101.888 227.552-227.552 227.552s-227.552-101.888-227.552-227.552c-125.664 0-227.552-101.888-227.552-227.552 0-41.504 11.264-80.288 30.688-113.792h-7.936c-81.056-36.32-136.512-114.080-136.512-197.024v-87.424c0-19.936 31.488-56.896 55.104-56.896h577.792c23.616 0 49.792 36.928 49.792 56.896v87.424c0 28.928-7.104 57.088-19.328 83.232h197.12c23.616 0 49.792 36.928 49.792 56.896v87.424c0 82.944-55.456 160.704-136.544 197.024zM625.792 789.344c62.72 0 113.792-51.040 113.792-113.792s-51.072-113.792-113.792-113.792c-12 0-23.36 2.368-34.208 5.824-18.56 29.92-43.808 55.136-73.728 73.696-3.456 10.88-5.824 22.24-5.824 34.24 0 62.72 51.072 113.792 113.792 113.792zM398.208 561.792c62.848 0 113.792-50.944 113.792-113.792s-50.944-113.792-113.792-113.792c-56.224 0-102.656 40.896-111.84 94.528-1.216 6.24-1.952 12.64-1.952 19.264 0 62.848 50.944 113.792 113.792 113.792zM625.792 106.656h-455.104v30.528c0 30.88 20.288 62.976 51.104 83.232h352.896c30.848-20.256 51.104-52.352 51.104-83.232v-30.528zM853.344 334.208h-258.24c19.424 33.504 30.688 72.288 30.688 113.792h176.448c30.848-20.256 51.104-52.352 51.104-83.232v-30.528z" />
<glyph unicode="&#xe939;" glyph-name="icon_megaphonee" d="M898.4 380.128v-252.672c0-17.664-9.984-31.968-31.936-31.968-5.312 0-18.464 11.328-34.624 28.384v678.208c16.16 17.056 29.312 28.384 34.624 28.384 23.936 0 31.936-14.304 31.936-31.936v-259.072c43.296-1.216 83.616-36.32 83.616-79.648 0-43.36-40.32-78.464-83.616-79.68zM384.48 318.528c1.984 0 0 288.928 0 288.928 219.424 0 349.504 96.32 418.048 162.368v-613.664c-68.544 66.016-198.624 162.368-418.048 162.368zM256.672 65.536l-63.904 253.664h-63.936c0 0-19.008 43.136-27.648 95.872-16.288 0-30.528 0-36.288 0-17.632 0-31.936 14.304-31.936 31.968v31.936c0 17.664 14.304 31.968 31.936 31.968 5.76 0 20 0 36.288 0 8.672 52.736 27.648 95.84 27.648 95.84h223.68v-287.584h-63.904l8.064-31.936h31.904l15.968-63.936h-31.808l39.776-157.792h-95.84z" />
<glyph unicode="&#xe93a;" glyph-name="icon_sync" horiz-adv-x="878" d="M863.415 356.571c0-1.134 0-2.853-0.585-3.986-48.567-202.277-215.442-343.442-426.277-343.442-111.433 0-219.429 43.995-300.581 121.161l-73.728-73.728c-6.839-6.839-16.018-10.862-25.71-10.862-20.005 0-36.571 16.567-36.571 36.571v256c0 20.005 16.567 36.571 36.571 36.571h256c20.005 0 36.571-16.567 36.571-36.571 0-9.728-3.986-18.871-10.862-25.71l-78.299-78.299c53.723-50.286 125.147-78.848 198.839-78.848 101.705 0 195.986 52.553 249.161 139.447 13.714 22.272 20.553 43.995 30.281 66.853 2.853 8.009 8.558 13.129 17.152 13.129h109.714c10.277 0 18.286-8.558 18.286-18.286zM877.714 813.714v-256c0-20.005-16.567-36.571-36.571-36.571h-256c-20.005 0-36.571 16.567-36.571 36.571 0 9.728 3.986 18.871 10.862 25.71l78.848 78.848c-54.272 50.286-125.696 78.299-199.424 78.299-101.705 0-195.986-52.553-249.161-139.447-13.714-22.272-20.553-43.995-30.281-66.853-2.853-8.009-8.558-13.129-17.152-13.129h-113.701c-10.277 0-18.286 8.558-18.286 18.286v3.986c49.152 202.862 217.71 343.442 428.581 343.442 112.018 0 221.147-44.581 302.299-121.161l74.277 73.728c6.839 6.839 16.018 10.862 25.71 10.862 20.005 0 36.571-16.567 36.571-36.571z" />
</font>
</defs>
</svg>
